<?xml version="1.0" encoding="UTF-8"?>
<svg version="1.1" xmlns="http://www.w3.org/2000/svg" width="225" height="225">
<path d="M0 0 C74.25 0 148.5 0 225 0 C225 74.25 225 148.5 225 225 C150.75 225 76.5 225 0 225 C0 150.75 0 76.5 0 0 Z " fill="#FEFEFE" transform="translate(0,0)"/>
<path d="M0 0 C11.11489009 9.40255489 18.38964683 22.23142204 20.65234375 36.65234375 C20.75788675 38.00496065 20.83862582 39.35961247 20.90234375 40.71484375 C21.01449219 42.10896484 21.01449219 42.10896484 21.12890625 43.53125 C22.02378503 62.72404484 12.03667344 78.58050141 1.33984375 93.65136719 C-0.06713419 95.67103049 -1.41601865 97.71924149 -2.75390625 99.78515625 C-3.59764422 101.05339342 -4.44139371 102.32162293 -5.28515625 103.58984375 C-5.65213623 104.17862305 -6.01911621 104.76740234 -6.3972168 105.37402344 C-9.53348037 109.98839071 -12.91902514 110.71074849 -18.09765625 111.71484375 C-21.33029301 112.2817914 -24.57078756 112.76332686 -27.8203125 113.22265625 C-28.72462509 113.35300262 -29.62893768 113.483349 -30.56065369 113.61764526 C-32.4604664 113.89024933 -34.36058403 114.1607361 -36.26098633 114.42919922 C-39.15612322 114.8392725 -42.04973983 115.25905618 -44.94335938 115.6796875 C-46.79809345 115.9445966 -48.65290861 116.20893878 -50.5078125 116.47265625 C-51.3652858 116.59762482 -52.22275909 116.72259338 -53.10621643 116.85134888 C-57.82364399 117.50968139 -62.3345924 117.84232917 -67.09765625 117.71484375 C-67.37738281 116.96460938 -67.65710938 116.214375 -67.9453125 115.44140625 C-71.38864005 106.6504028 -75.85119335 99.69575143 -81.78125 92.40234375 C-94.43571493 76.79452173 -102.60120304 59.2275178 -101.09765625 38.71484375 C-98.66586562 21.98897108 -90.94163539 7.03372489 -77.36328125 -3.3828125 C-52.8433581 -19.69479527 -23.26862704 -17.16538061 0 0 Z " fill="#F5BB2C" transform="translate(153.09765625,56.28515625)"/>
<path d="M0 0 C-3.01105369 4.18582084 -6.10444313 8.16652695 -9.625 11.9375 C-15.77660986 18.75827353 -20.81997893 26.43525325 -26 34 C-26.44666016 34.64807617 -26.89332031 35.29615234 -27.35351562 35.96386719 C-32.81302067 43.90458886 -37.88844527 52.01089949 -42.68994141 60.3671875 C-44.62949172 63.73474075 -46.55808891 66.96135179 -49 70 C-49.70962891 68.67548828 -49.70962891 68.67548828 -50.43359375 67.32421875 C-56.74268567 55.77803079 -63.99216648 46.30948545 -74.12890625 37.77734375 C-74.74636719 37.19082031 -75.36382812 36.60429688 -76 36 C-76 35.34 -76 34.68 -76 34 C-74.10787298 33.46585888 -72.21108364 32.94821671 -70.3125 32.4375 C-69.25675781 32.14746094 -68.20101562 31.85742188 -67.11328125 31.55859375 C-62.70271652 30.76723772 -60.28345269 31.14912596 -56.54296875 33.62890625 C-55.37701172 34.58603516 -55.37701172 34.58603516 -54.1875 35.5625 C-53.00220703 36.52349609 -53.00220703 36.52349609 -51.79296875 37.50390625 C-51.20128906 37.99761719 -50.60960938 38.49132812 -50 39 C-47.53712902 36.77243516 -45.71652017 34.24871233 -43.84130859 31.51977539 C-38.24895796 23.38269194 -32.08974588 15.85727478 -25.42333984 8.578125 C-24.22845135 7.25329494 -23.08595365 5.88147292 -21.95703125 4.5 C-16.02942057 -1.99027571 -8.11623285 -0.62053722 0 0 Z " fill="#FEFDFA" transform="translate(151,75)"/>
<path d="M0 0 C0 3.3 0 6.6 0 10 C-3.09389568 11.54694784 -6.46427382 11.72484924 -9.859375 12.19140625 C-11.03237152 12.35575417 -11.03237152 12.35575417 -12.22906494 12.52342224 C-13.88651426 12.7546028 -15.54421747 12.98396918 -17.20214844 13.21166992 C-19.72673424 13.55929639 -22.25009073 13.91498886 -24.7734375 14.27148438 C-26.38534853 14.49528297 -27.99732575 14.71860547 -29.609375 14.94140625 C-30.73469635 15.10075401 -30.73469635 15.10075401 -31.88275146 15.26332092 C-35.95353366 15.81577273 -39.89250563 16.10977623 -44 16 C-44.33 12.7 -44.66 9.4 -45 6 C-36.41510242 4.14059822 -27.81572763 2.58843683 -19.125 1.3125 C-17.82526245 1.11563599 -17.82526245 1.11563599 -16.49926758 0.91479492 C-10.94305618 0.12287147 -5.61223128 -0.11904733 0 0 Z " fill="#333333" transform="translate(136,194)"/>
<path d="M0 0 C-0.33 2.97 -0.66 5.94 -1 9 C-10.87409994 10.7188248 -20.76048516 12.30367848 -30.6875 13.6875 C-32.06639404 13.88436401 -32.06639404 13.88436401 -33.47314453 14.08520508 C-38.36785467 14.75413384 -43.06020407 15.14190932 -48 15 C-48.33 12.36 -48.66 9.72 -49 7 C-39.57170127 4.94631117 -30.09398752 3.31020949 -20.5625 1.8125 C-19.44955566 1.63364258 -18.33661133 1.45478516 -17.18994141 1.27050781 C-11.38503451 0.37529746 -5.87305749 -0.20694856 0 0 Z " fill="#353535" transform="translate(138,176)"/>
<path d="M0 0 C3.5 0.875 3.5 0.875 5.4375 2.0625 C7.07560428 4.85691318 6.85450704 6.65458341 6.5 9.875 C5.14355935 12.652335 3.41681119 15.11251544 1.625 17.625 C1.16480469 18.29660156 0.70460937 18.96820313 0.23046875 19.66015625 C-1.56737169 22.26051097 -3.25960489 24.63460489 -5.5 26.875 C-9.39201406 27.30744601 -11.63230302 27.45346465 -14.9375 25.25 C-17.00697324 22.10440067 -16.95103283 20.61149746 -16.5 16.875 C-15.16609404 14.26757216 -13.46709682 12.0066686 -11.6875 9.6875 C-11.00977539 8.76420898 -11.00977539 8.76420898 -10.31835938 7.82226562 C-4.39657073 -0.15702038 -4.39657073 -0.15702038 0 0 Z " fill="#343434" transform="translate(185.5,25.125)"/>
<path d="M0 0 C2.9375 1.875 2.9375 1.875 5 4 C5 4.66 5 5.32 5 6 C5.88751953 6.39638672 5.88751953 6.39638672 6.79296875 6.80078125 C10.40391931 8.76283757 12.92478317 11.46076034 15 15 C15.0625 18.8125 15.0625 18.8125 14 22 C10.18734556 24.54176963 8.527516 24.60460617 4 24 C1.19578911 22.32291425 -1.04085581 20.20943353 -3.375 17.9375 C-4.31666016 17.09541992 -4.31666016 17.09541992 -5.27734375 16.23632812 C-8.44671533 13.24151156 -9.85920374 11.52825882 -11.0078125 7.21875 C-11 4 -11 4 -9.5 1.5625 C-6.06320747 -0.58549533 -3.98874294 -0.55982357 0 0 Z " fill="#353535" transform="translate(42,22)"/>
<path d="M0 0 C3.95883488 -0.1815442 6.41684279 -0.26573457 9.890625 1.75390625 C11.79729659 5.29486777 11.30892062 7.39023381 10.203125 11.19140625 C6.5286867 15.27411547 1.43182252 15.11785321 -3.77734375 15.4296875 C-5.17958119 15.45985725 -6.58194706 15.48451785 -7.984375 15.50390625 C-9.05075195 15.54741211 -9.05075195 15.54741211 -10.13867188 15.59179688 C-15.30171579 15.65493852 -15.30171579 15.65493852 -17.75390625 13.359375 C-19.19961499 10.3542501 -19.34554386 8.48341943 -18.796875 5.19140625 C-16.62583496 2.42145861 -14.8230149 1.38772562 -11.3671875 0.7265625 C-7.58228373 0.3352056 -3.79411238 0.25965294 0 0 Z " fill="#343434" transform="translate(206.796875,90.80859375)"/>
<path d="M0 0 C8.42364508 -0.19170277 8.42364508 -0.19170277 12.04296875 2.12109375 C13.46338696 4.96193016 13.35749147 6.97586653 13.04296875 10.12109375 C11.34627908 12.76308195 9.91089977 13.92841134 6.82592773 14.61328125 C4.0813729 14.92354652 1.36525297 15.07636287 -1.39453125 15.18359375 C-2.33619141 15.25513672 -3.27785156 15.32667969 -4.24804688 15.40039062 C-8.99863067 15.62501244 -11.17590801 15.70693618 -15.08203125 12.77734375 C-16.95703125 10.12109375 -16.95703125 10.12109375 -17.51953125 7.55859375 C-16.72370395 4.11000878 -15.93019226 3.10320109 -12.95703125 1.12109375 C-8.68195292 0.16931379 -4.35990692 0.17854308 0 0 Z " fill="#333333" transform="translate(23.95703125,97.87890625)"/>
<path d="M0 0 C3.3125 1 3.3125 1 5.3125 4 C5.79674593 7.62972232 5.72890619 11.27889646 5.75 14.9375 C5.78287109 15.93974609 5.81574219 16.94199219 5.84960938 17.97460938 C5.90362682 25.33571392 5.90362682 25.33571392 2.9453125 28.66015625 C-0.00520083 30.16167861 -1.44037705 30.6660765 -4.6875 30 C-6.8046875 28.62109375 -6.8046875 28.62109375 -8.6875 26 C-9.31823721 22.51501374 -9.29094446 19.09576605 -9.25 15.5625 C-9.27384766 14.62083984 -9.29769531 13.67917969 -9.32226562 12.70898438 C-9.31235841 8.02947471 -9.20249767 5.70615783 -6.3828125 1.83984375 C-3.6875 -0 -3.6875 -0 0 0 Z " fill="#333333" transform="translate(119.6875,0.00000000000000005551115123125783)"/>
<path d="M0 0 C-2.82625525 5.65251051 -6.56478181 8.11446611 -12.4375 10.25 C-19.06549531 11.64536743 -25.06176443 11.45966768 -31 8 C-32.02555499 6.6862212 -33.02855556 5.35427969 -34 4 C-29.83491163 3.32321814 -25.66771325 2.66040852 -21.5 2 C-20.32695313 1.80921875 -19.15390625 1.6184375 -17.9453125 1.421875 C-11.88691677 0.46886893 -6.13322218 -0.24289989 0 0 Z " fill="#363636" transform="translate(132,214)"/>
</svg>
